<mxfile host="app.diagrams.net" modified="2022-02-10T23:43:06.595Z" agent="5.0 (Macintosh; Intel Mac OS X 10_15_7) AppleWebKit/605.1.15 (KHTML, like Gecko) Version/15.2 Safari/605.1.15" etag="mIHlaNaJqz-maNOp60kO" version="16.5.6" type="github">
  <diagram id="t8YzxzQNMDlKeD1uf9Wi" name="Page-1">
    <mxGraphModel dx="1186" dy="795" grid="1" gridSize="10" guides="1" tooltips="1" connect="1" arrows="1" fold="1" page="1" pageScale="1" pageWidth="827" pageHeight="1169" math="0" shadow="0">
      <root>
        <mxCell id="0" />
        <mxCell id="1" parent="0" />
        <mxCell id="ts4_VkyljzKu1rLcYhcG-20" style="edgeStyle=none;rounded=0;orthogonalLoop=1;jettySize=auto;html=1;entryX=0.5;entryY=1;entryDx=0;entryDy=0;" parent="1" source="ts4_VkyljzKu1rLcYhcG-18" target="ts4_VkyljzKu1rLcYhcG-9" edge="1">
          <mxGeometry relative="1" as="geometry" />
        </mxCell>
        <mxCell id="ts4_VkyljzKu1rLcYhcG-18" value="" style="fillColor=none;strokeColor=#5A6C86;dashed=1;verticalAlign=top;fontStyle=0;fontColor=#5A6C86;" parent="1" vertex="1">
          <mxGeometry x="480" y="330" width="200" height="180" as="geometry" />
        </mxCell>
        <mxCell id="ts4_VkyljzKu1rLcYhcG-4" value="" style="fillColor=none;strokeColor=#5A6C86;dashed=1;verticalAlign=top;fontStyle=0;fontColor=#5A6C86;" parent="1" vertex="1">
          <mxGeometry x="100" y="170" width="200" height="250" as="geometry" />
        </mxCell>
        <mxCell id="ts4_VkyljzKu1rLcYhcG-7" value="" style="fillColor=none;strokeColor=#5A6C86;dashed=1;verticalAlign=top;fontStyle=0;fontColor=#5A6C86;" parent="1" vertex="1">
          <mxGeometry x="480" y="130" width="200" height="160" as="geometry" />
        </mxCell>
        <mxCell id="ts4_VkyljzKu1rLcYhcG-1" value="" style="sketch=0;points=[[0,0,0],[0.25,0,0],[0.5,0,0],[0.75,0,0],[1,0,0],[0,1,0],[0.25,1,0],[0.5,1,0],[0.75,1,0],[1,1,0],[0,0.25,0],[0,0.5,0],[0,0.75,0],[1,0.25,0],[1,0.5,0],[1,0.75,0]];outlineConnect=0;fontColor=#232F3E;gradientColor=#945DF2;gradientDirection=north;fillColor=#5A30B5;strokeColor=#ffffff;dashed=0;verticalLabelPosition=bottom;verticalAlign=top;align=center;html=1;fontSize=12;fontStyle=0;aspect=fixed;shape=mxgraph.aws4.resourceIcon;resIcon=mxgraph.aws4.cloudfront;" parent="1" vertex="1">
          <mxGeometry x="222" y="170" width="78" height="78" as="geometry" />
        </mxCell>
        <mxCell id="ts4_VkyljzKu1rLcYhcG-2" value="" style="sketch=0;points=[[0,0,0],[0.25,0,0],[0.5,0,0],[0.75,0,0],[1,0,0],[0,1,0],[0.25,1,0],[0.5,1,0],[0.75,1,0],[1,1,0],[0,0.25,0],[0,0.5,0],[0,0.75,0],[1,0.25,0],[1,0.5,0],[1,0.75,0]];outlineConnect=0;fontColor=#232F3E;gradientColor=#F78E04;gradientDirection=north;fillColor=#D05C17;strokeColor=#ffffff;dashed=0;verticalLabelPosition=bottom;verticalAlign=top;align=center;html=1;fontSize=12;fontStyle=0;aspect=fixed;shape=mxgraph.aws4.resourceIcon;resIcon=mxgraph.aws4.lambda;" parent="1" vertex="1">
          <mxGeometry x="600" y="330" width="78" height="78" as="geometry" />
        </mxCell>
        <mxCell id="ts4_VkyljzKu1rLcYhcG-3" value="" style="sketch=0;points=[[0,0,0],[0.25,0,0],[0.5,0,0],[0.75,0,0],[1,0,0],[0,1,0],[0.25,1,0],[0.5,1,0],[0.75,1,0],[1,1,0],[0,0.25,0],[0,0.5,0],[0,0.75,0],[1,0.25,0],[1,0.5,0],[1,0.75,0]];outlineConnect=0;fontColor=#232F3E;gradientColor=#60A337;gradientDirection=north;fillColor=#277116;strokeColor=#ffffff;dashed=0;verticalLabelPosition=bottom;verticalAlign=top;align=center;html=1;fontSize=12;fontStyle=0;aspect=fixed;shape=mxgraph.aws4.resourceIcon;resIcon=mxgraph.aws4.s3;" parent="1" vertex="1">
          <mxGeometry x="602" y="130" width="78" height="78" as="geometry" />
        </mxCell>
        <mxCell id="ts4_VkyljzKu1rLcYhcG-8" value="static content" style="rounded=0;whiteSpace=wrap;html=1;" parent="1" vertex="1">
          <mxGeometry x="490" y="220" width="180" height="30" as="geometry" />
        </mxCell>
        <mxCell id="ts4_VkyljzKu1rLcYhcG-9" value="prerendered pages" style="rounded=0;whiteSpace=wrap;html=1;" parent="1" vertex="1">
          <mxGeometry x="490" y="250" width="180" height="30" as="geometry" />
        </mxCell>
        <mxCell id="ts4_VkyljzKu1rLcYhcG-13" style="rounded=0;orthogonalLoop=1;jettySize=auto;html=1;exitX=1;exitY=0.5;exitDx=0;exitDy=0;entryX=0;entryY=0.5;entryDx=0;entryDy=0;" parent="1" source="ts4_VkyljzKu1rLcYhcG-10" target="ts4_VkyljzKu1rLcYhcG-8" edge="1">
          <mxGeometry relative="1" as="geometry" />
        </mxCell>
        <mxCell id="ts4_VkyljzKu1rLcYhcG-10" value="_app/*" style="rounded=0;whiteSpace=wrap;html=1;" parent="1" vertex="1">
          <mxGeometry x="110" y="270" width="180" height="30" as="geometry" />
        </mxCell>
        <mxCell id="ts4_VkyljzKu1rLcYhcG-14" style="edgeStyle=none;rounded=0;orthogonalLoop=1;jettySize=auto;html=1;exitX=1;exitY=0.5;exitDx=0;exitDy=0;" parent="1" source="ts4_VkyljzKu1rLcYhcG-11" edge="1">
          <mxGeometry relative="1" as="geometry">
            <mxPoint x="490" y="235" as="targetPoint" />
          </mxGeometry>
        </mxCell>
        <mxCell id="ts4_VkyljzKu1rLcYhcG-11" value="favicon.ico" style="rounded=0;whiteSpace=wrap;html=1;" parent="1" vertex="1">
          <mxGeometry x="110" y="300" width="180" height="30" as="geometry" />
        </mxCell>
        <mxCell id="ts4_VkyljzKu1rLcYhcG-15" style="edgeStyle=none;rounded=0;orthogonalLoop=1;jettySize=auto;html=1;entryX=0;entryY=0.5;entryDx=0;entryDy=0;exitX=1;exitY=0.5;exitDx=0;exitDy=0;" parent="1" source="ts4_VkyljzKu1rLcYhcG-12" target="ts4_VkyljzKu1rLcYhcG-8" edge="1">
          <mxGeometry relative="1" as="geometry">
            <mxPoint x="440" y="280" as="targetPoint" />
          </mxGeometry>
        </mxCell>
        <mxCell id="ts4_VkyljzKu1rLcYhcG-12" value="other static content" style="rounded=0;whiteSpace=wrap;html=1;" parent="1" vertex="1">
          <mxGeometry x="110" y="330" width="180" height="30" as="geometry" />
        </mxCell>
        <mxCell id="ts4_VkyljzKu1rLcYhcG-17" style="edgeStyle=none;rounded=0;orthogonalLoop=1;jettySize=auto;html=1;entryX=0;entryY=0.5;entryDx=0;entryDy=0;" parent="1" source="ts4_VkyljzKu1rLcYhcG-16" target="ts4_VkyljzKu1rLcYhcG-18" edge="1">
          <mxGeometry relative="1" as="geometry" />
        </mxCell>
        <mxCell id="ts4_VkyljzKu1rLcYhcG-16" value="Default (*)" style="rounded=0;whiteSpace=wrap;html=1;" parent="1" vertex="1">
          <mxGeometry x="110" y="370" width="180" height="30" as="geometry" />
        </mxCell>
        <mxCell id="ts4_VkyljzKu1rLcYhcG-19" value="when request requested resource is pre-rendered&lt;br&gt;forward to S3 origin,&lt;br&gt;otherwise render and return response" style="rounded=0;whiteSpace=wrap;html=1;" parent="1" vertex="1">
          <mxGeometry x="490" y="420" width="180" height="80" as="geometry" />
        </mxCell>
        <mxCell id="4hoPZ2FB3OQ-IiXMfTNY-1" value="Lambda@Edge origin request handler" style="text;html=1;strokeColor=none;fillColor=none;align=center;verticalAlign=middle;whiteSpace=wrap;rounded=0;" vertex="1" parent="1">
          <mxGeometry x="490" y="340" width="110" height="50" as="geometry" />
        </mxCell>
      </root>
    </mxGraphModel>
  </diagram>
</mxfile>
